<svg xmlns="http://www.w3.org/2000/svg" viewBox="0 0 200 200" width="200" height="200">
  <ellipse cx="100" cy="185" rx="55" ry="10" fill="#000" opacity="0.08"/>

  <g class="cat-tail">
    <path d="M150 140 Q185 130 180 95 Q177 75 158 78" fill="none" stroke="#f0a868" stroke-width="14" stroke-linecap="round"/>
  </g>

  <ellipse cx="100" cy="150" rx="42" ry="34" fill="#f7b96e"/>

  <g class="cat-ear cat-ear-left">
    <polygon points="55,70 70,30 90,68" fill="#f7b96e"/>
    <polygon points="62,65 71,42 82,63" fill="#f48fb1"/>
  </g>
  <g class="cat-ear cat-ear-right">
    <polygon points="145,70 130,30 110,68" fill="#f7b96e"/>
    <polygon points="138,65 129,42 118,63" fill="#f48fb1"/>
  </g>

  <circle cx="100" cy="92" r="46" fill="#f9c685"/>

  <circle cx="80" cy="88" r="7" fill="#2b2b2b"/>
  <circle cx="120" cy="88" r="7" fill="#2b2b2b"/>
  <circle cx="82" cy="86" r="2" fill="#fff"/>
  <circle cx="122" cy="86" r="2" fill="#fff"/>

  <polygon points="100,100 94,108 106,108" fill="#f48fb1"/>
  <path d="M100 108 Q100 113 94 114" fill="none" stroke="#5a4636" stroke-width="2" stroke-linecap="round"/>
  <path d="M100 108 Q100 113 106 114" fill="none" stroke="#5a4636" stroke-width="2" stroke-linecap="round"/>

  <g stroke="#5a4636" stroke-width="1.5" stroke-linecap="round">
    <line x1="60" y1="100" x2="35" y2="96"/>
    <line x1="60" y1="106" x2="35" y2="108"/>
    <line x1="140" y1="100" x2="165" y2="96"/>
    <line x1="140" y1="106" x2="165" y2="108"/>
  </g>

  <g class="cat-paw cat-paw-left">
    <ellipse cx="72" cy="178" rx="14" ry="11" fill="#f9c685"/>
  </g>
  <g class="cat-paw cat-paw-right">
    <ellipse cx="128" cy="178" rx="14" ry="11" fill="#f9c685"/>
  </g>
</svg>
